<svg xmlns="http://www.w3.org/2000/svg" viewBox="0 0 700 700"><defs><style>.cls-1{fill:#ee7800;}.cls-2{fill:#fff;}.cls-3,.cls-6{fill:none;stroke:#4376a2;stroke-width:10px;}.cls-3{stroke-miterlimit:10;}.cls-4{fill:#4376a2;}.cls-5{fill:#ff9ebc;}.cls-6{stroke-linecap:round;stroke-linejoin:round;}</style></defs><title>无浪网|无风不起浪网</title><g id="图层_3" data-name="图层 3"><rect class="cls-1" x="1" y="1" width="700" height="700" rx="70" ry="70"/></g><g id="图层_2" data-name="图层 2"><path class="cls-2" d="M186,271S64,273,64,413c9,117,122,116,122,116l349,1s98-7,111-125S525,271,525,271,488,138,355,136,185,259,186,271Z"/><path class="cls-3" d="M619.75,403.35C619.56,460.28,572.56,506,515.63,506H194.87c-56.93,0-103.93-45.72-104.12-102.65A103,103,0,0,1,193.75,300q3.93,0,7.79.29a12.17,12.17,0,0,0,13-10.53A142,142,0,0,1,355.25,167c71.17,0,132,58.77,140.71,122.76a12.17,12.17,0,0,0,13,10.53q3.85-.29,7.79-.29A103,103,0,0,1,619.75,403.35Z"/><path class="cls-4" d="M350.75,373h26s10,1,7,11-14,33-33,31c-19,2-30-21-33-31s7-11,7-11Z"/><ellipse class="cls-5" cx="350.75" cy="405.12" rx="17.5" ry="10"/><circle class="cls-5" cx="274" cy="382" r="17"/><circle class="cls-5" cx="425" cy="380" r="17"/><path class="cls-6" d="M257,340s14-17,38,0"/><path class="cls-6" d="M406,340s14-17,38,0"/></g></svg>